<svg xmlns="http://www.w3.org/2000/svg"  viewBox="0 0 140 101.34"><defs><style>.a{fill:#0c1b54}</style></defs><path class="a" d="M70.064 37.064c.056.014-.033.181-.033.181l-.115-.094s.09-.097.148-.087zM0 68.846h1.324v11.125a5.482 5.482 0 0 0 .421 2.155 5.768 5.768 0 0 0 1.144 1.758 5.209 5.209 0 0 0 1.722 1.192 5.353 5.353 0 0 0 2.155.433 5.441 5.441 0 0 0 2.167-.433 5.317 5.317 0 0 0 1.746-1.192 5.672 5.672 0 0 0 1.156-1.758 5.5 5.5 0 0 0 .421-2.155V68.846h1.3v11.125a6.817 6.817 0 0 1-1.95 4.8 6.849 6.849 0 0 1-2.155 1.469 6.77 6.77 0 0 1-7.513-1.469 6.848 6.848 0 0 1-1.421-2.167 6.765 6.765 0 0 1-.518-2.637zM29.955 68.846h12.931v.963l-11.51 15.556h11.918v1.18H29.57v-.939l11.51-15.58H29.955zM78.163 86.545h-1.3v-15.1l-7.826 12.16H68.7l-7.826-12.16v15.1H59.55v-17.7h1.18l8.139 12.714 8.139-12.714h1.156zM106.433 81.464h-8.765l-2.071 5.081h-1.421l7.369-17.7h.987l7.441 17.7h-1.421zm-8.211-1.252h7.682l-3.877-9.247zM140 86.545h-1.18l-11.51-15.387v15.387h-1.324v-17.7h1.18l11.51 15.411v-15.41H140zM25.917 98.855a3.2 3.2 0 0 1-.162 1.062 2.165 2.165 0 0 1-.462.781 1.927 1.927 0 0 1-.714.481 2.511 2.511 0 0 1-.919.162 2.24 2.24 0 0 1-.628-.086 2.331 2.331 0 0 1-.543-.233 2.375 2.375 0 0 1-.447-.343 2.285 2.285 0 0 1-.343-.423l.4-.3a1.817 1.817 0 0 0 .247.324 1.785 1.785 0 0 0 .348.286 1.831 1.831 0 0 0 .438.2 1.751 1.751 0 0 0 .528.076 1.668 1.668 0 0 0 1.267-.5 2.073 2.073 0 0 0 .476-1.481v-4.624h.514zM32.63 94.237h4.5v.486h-3.98v2.657h3.5v.486h-3.5v2.895h4.123v.476h-4.647zM52.008 94.237h.543l-2.314 7h-.39l-1.961-5.152-1.971 5.152h-.39l-2.295-7h.543l1.99 6.066 2.038-5.342h.181L50 100.303zM58.778 94.237h4.5v.486h-3.979v2.657h3.5v.486h-3.5v2.895h4.123v.476h-4.647zM69.952 94.237h.524v6.523h3.838v.476h-4.362zM80.546 94.237h.524v6.523h3.837v.476h-4.361zM91.144 94.237h4.5v.486h-3.98v2.657h3.5v.486h-3.5v2.895h4.123v.476H91.14zM106.931 96.217a1.973 1.973 0 0 1-.133.728 1.764 1.764 0 0 1-.386.6 1.969 1.969 0 0 1-.619.419 2.721 2.721 0 0 1-.823.21l2.133 3.066h-.619l-2.114-3.038h-1.533v3.038h-.524v-7h2.333a2.99 2.99 0 0 1 .957.143 2.066 2.066 0 0 1 .719.4 1.757 1.757 0 0 1 .453.629 2.024 2.024 0 0 1 .156.805zm-4.095-1.495v2.99h1.8a1.9 1.9 0 0 0 1.314-.424 1.534 1.534 0 0 0 0-2.161 1.894 1.894 0 0 0-1.319-.4zM115.749 101.236h-.524v-3.149l-2.552-3.847h.629l2.18 3.314 2.19-3.314h.628l-2.552 3.837z"/><g><path class="a" d="M86.562 44.353l-.026.028a1.063 1.063 0 0 1-.11.107 16.673 16.673 0 0 1-11.807 4.879A16.727 16.727 0 0 1 57.892 32.64V8.371A8.59 8.59 0 0 0 50.474 0h-.389v33.954a19.8 19.8 0 0 0 19.8 19.8 19.761 19.761 0 0 0 15.786-7.855l.662-.915c.041-.057.192-.294.343-.536z"/><path class="a" d="M89.909.712V.418s-.637.089-.909.15c-6.438 1.452-6.992 7.726-6.895 9.273.083 1.314.316 7.222.784 18.051.229 5.315.1 8.758-.63 11.1a11.415 11.415 0 0 1-3.408 5.331.035.035 0 0 0 .008.027c.056.057.326 0 .552-.024 6.464-.762 10.5-4.832 10.5-12.493.002-7.518-.002-26.819-.002-31.121z"/></g></svg>